<svg viewBox="0 0 100 100" fill="none" xmlns="http://www.w3.org/2000/svg">
  <circle cx="50" cy="50" r="48" fill="white" stroke="#1D3557" stroke-width="2.5"/>
  <circle cx="50" cy="50" r="44" stroke="#D4AF37" stroke-width="1.5"/>
  <circle cx="50" cy="32" r="6" fill="#1D3557" />
  <path d="M50 40 C42 40 38 48 38 55 C38 62 42 68 50 72 C58 68 62 62 62 55 C62 48 58 40 50 40Z" fill="#1D3557" />
  <path d="M25 60 C35 55 45 58 50 65 C55 58 65 55 75 60 L75 45 C65 40 55 43 50 50 C45 43 35 40 25 45 Z" fill="#D4AF37" />
  <path d="M58 22 L60 25.5 L64 26 L61 28 L62 32 L58 30.5 L54 32 L55 28 L52 26 L56 25.5 Z" fill="#D4AF37" />
</svg>